<svg width="262" height="262" viewBox="0 0 262 262" fill="none" xmlns="http://www.w3.org/2000/svg">
<g clip-path="url(#clip0_0_419)">
<path fill-rule="evenodd" clip-rule="evenodd" d="M150.173 167.264C173.949 163.977 198.37 156.448 216.676 140.947C223.337 135.308 228.344 128.511 233.532 121.599C233.896 121.115 233.798 120.423 233.313 120.056C232.824 119.691 232.133 119.789 231.768 120.277C226.679 127.055 221.783 133.734 215.251 139.264C197.205 154.545 173.099 161.9 149.663 165.11L149.584 164.754C148.743 160.88 144.807 157.217 139.396 154.315C131.639 150.155 120.904 147.449 113.001 147.406C109.449 147.387 106.451 147.92 104.47 149.027C102.924 149.889 101.945 151.099 101.629 152.635C100.959 155.909 103.294 158.937 107.502 161.344C116.302 166.38 133.251 169.07 140.841 168.35C143.211 168.124 145.597 167.861 147.99 167.554C148.157 168.231 148.317 168.895 148.444 169.548C148.799 171.408 148.878 173.205 147.93 175.174C146.448 178.241 143.705 180.6 140.487 182.454C135.461 185.346 129.269 186.991 124.539 187.972C98.1997 193.431 76.9317 184.95 60.1437 173.081C43.1915 161.092 30.7745 145.652 22.2938 137.395C21.8585 136.97 21.1612 136.981 20.7356 137.417C20.31 137.852 20.3195 138.551 20.7573 138.975C29.292 147.286 41.8056 162.813 58.8726 174.88C76.104 187.068 97.9479 195.735 124.986 190.133C129.912 189.112 136.353 187.377 141.586 184.366C145.207 182.28 148.249 179.583 149.916 176.131C151.41 173.033 150.894 170.293 150.173 167.264ZM147.468 165.398L147.431 165.22C146.696 161.834 143.086 158.796 138.354 156.259C130.9 152.261 120.586 149.653 112.988 149.613C110.383 149.597 108.11 149.881 106.414 150.544C105.016 151.093 104.034 151.883 103.791 153.077C103.557 154.204 103.911 155.259 104.653 156.244C105.523 157.402 106.896 158.457 108.595 159.43C117.052 164.269 133.339 166.848 140.632 166.155C142.897 165.938 145.177 165.688 147.468 165.398Z" fill="black"/>
<path fill-rule="evenodd" clip-rule="evenodd" d="M233.765 117.192C233.968 117.63 234.061 118.3 234.152 119.022C234.371 120.741 234.361 122.752 234.395 123.699C234.419 124.309 234.932 124.782 235.539 124.76C236.149 124.737 236.624 124.226 236.6 123.616C236.557 122.456 236.566 119.777 236.198 117.831C236 116.788 235.668 115.934 235.249 115.453C234.538 114.632 233.447 114.594 232.103 115.633C230.514 116.862 228.106 119.883 224.873 120.758C224.286 120.915 223.938 121.524 224.098 122.109C224.257 122.698 224.862 123.046 225.451 122.887C228.533 122.051 231.001 119.548 232.746 117.977C233.078 117.679 233.507 117.371 233.765 117.192Z" fill="black"/>
</g>
<defs>
<clipPath id="clip0_0_419">
<rect width="187" height="187" fill="white" transform="translate(0.000244141 110.768) rotate(-36.323)"/>
</clipPath>
</defs>
</svg>
