<svg width="43" height="46" viewBox="0 0 43 46" fill="none" xmlns="http://www.w3.org/2000/svg">
<path d="M0.677734 10.9155V16.7947H15.2346V32.1652L7.95781 22.9527L1.98349 25.4724L20.8316 46.0003V11.2895L0.677734 10.9155Z" fill="#FFB74A"/>
<path d="M22.2227 11.2896V46.0003L41.5465 25.1935L35.7625 22.7658L28.0165 32.1652V16.7947H42.8523V11.2896H22.2227Z" fill="#004AAD"/>
<path d="M17.3803 8.39882C19.6995 8.39882 21.5797 6.51868 21.5797 4.19941C21.5797 1.88014 19.6995 0 17.3803 0C15.061 0 13.1808 1.88014 13.1808 4.19941C13.1808 6.51868 15.061 8.39882 17.3803 8.39882Z" fill="#FFB74A"/>
<path d="M28.3381 8.39882C30.6574 8.39882 32.5375 6.51868 32.5375 4.19941C32.5375 1.88014 30.6574 0 28.3381 0C26.0188 0 24.1387 1.88014 24.1387 4.19941C24.1387 6.51868 26.0188 8.39882 28.3381 8.39882Z" fill="#004AAD"/>
</svg>
