<svg width="113" height="110" viewBox="0 0 113 110" fill="none" xmlns="http://www.w3.org/2000/svg">
<path d="M96.8321 8.11482C96.8321 6.51937 97.3052 4.95975 98.1916 3.63319C99.078 2.30662 100.338 1.27269 101.812 0.662142C103.286 0.0515907 104.908 -0.108157 106.473 0.203099C108.037 0.514355 109.475 1.28264 110.603 2.41079C111.731 3.53894 112.499 4.97629 112.811 6.54108C113.122 8.10587 112.962 9.72782 112.351 11.2018C111.741 12.6758 110.707 13.9357 109.38 14.8221C108.054 15.7084 106.494 16.1815 104.899 16.1815C102.759 16.1815 100.708 15.3317 99.1948 13.8189C97.682 12.306 96.8321 10.2542 96.8321 8.11482Z" fill="#FCF3F4"/>
<path d="M0.0314331 39.3636C0.0314331 37.7681 0.504548 36.2085 1.39093 34.882C2.27731 33.5554 3.53716 32.5215 5.01116 31.9109C6.48516 31.3004 8.10712 31.1406 9.67191 31.4519C11.2367 31.7631 12.674 32.5314 13.8022 33.6596C14.9303 34.7877 15.6986 36.2251 16.0099 37.7899C16.3211 39.3546 16.1614 40.9766 15.5508 42.4506C14.9403 43.9246 13.9063 45.1844 12.5798 46.0708C11.2532 46.9572 9.69361 47.4303 8.09816 47.4303C5.95874 47.4303 3.90692 46.5804 2.39412 45.0676C0.881317 43.5548 0.0314331 41.503 0.0314331 39.3636Z" fill="#FCF3F4"/>
<path d="M96.8321 70.6256C96.8321 69.0301 97.3052 67.4705 98.1916 66.1439C99.078 64.8174 100.338 63.7834 101.812 63.1729C103.286 62.5623 104.908 62.4026 106.473 62.7138C108.037 63.0251 109.475 63.7934 110.603 64.9215C111.731 66.0497 112.499 67.487 112.811 69.0518C113.122 70.6166 112.962 72.2386 112.351 73.7126C111.741 75.1866 110.707 76.4464 109.38 77.3328C108.054 78.2192 106.494 78.6923 104.899 78.6923C102.759 78.6923 100.708 77.8424 99.1948 76.3296C97.682 74.8168 96.8321 72.765 96.8321 70.6256Z" fill="#FCF3F4"/>
<path d="M0.0314331 101.887C0.0314331 100.292 0.504548 98.7322 1.39093 97.4057C2.27731 96.0791 3.53716 95.0452 5.01116 94.4346C6.48516 93.8241 8.10712 93.6643 9.67191 93.9756C11.2367 94.2868 12.674 95.0551 13.8022 96.1832C14.9303 97.3114 15.6986 98.7487 16.0099 100.314C16.3211 101.878 16.1614 103.5 15.5508 104.974C14.9403 106.448 13.9063 107.708 12.5798 108.595C11.2532 109.481 9.69361 109.954 8.09816 109.954C5.95874 109.954 3.90692 109.104 2.39412 107.591C0.881317 106.079 0.0314331 104.027 0.0314331 101.887V101.887Z" fill="#FCF3F4"/>
<path d="M41.7567 93.9365C40.5822 93.7245 39.375 93.7817 38.2259 94.104C37.7164 94.2589 37.1749 94.2762 36.6566 94.1539C36.1383 94.0317 35.6615 93.7744 35.2749 93.4082C28.7288 87.1069 21.693 80.3159 16.7189 75.4707C16.3393 75.0973 16.0662 74.6293 15.928 74.115C15.7898 73.6007 15.7915 73.0589 15.9329 72.5455C16.0902 71.9177 16.1682 71.2727 16.1648 70.6255C16.1663 69.9784 16.0884 69.3336 15.9329 68.7055C15.7995 68.1915 15.8018 67.6518 15.9396 67.1391C16.0774 66.6263 16.3459 66.1581 16.7189 65.7803L35.3265 47.8428C35.7139 47.4822 36.1884 47.2284 36.7035 47.1064C37.2186 46.9844 37.7565 46.9984 38.2645 47.147C39.4102 47.4629 40.6119 47.5201 41.7824 47.3145C42.8511 47.1113 43.8676 46.694 44.7709 46.0878C45.6741 45.4816 46.4454 44.6989 47.0384 43.787C47.6313 42.875 48.0337 41.8525 48.2213 40.781C48.4089 39.7095 48.3779 38.6111 48.13 37.5519C47.8822 36.4927 47.4227 35.4946 46.7791 34.6175C46.1356 33.7405 45.3213 33.0027 44.3853 32.4485C43.4492 31.8943 42.4108 31.5351 41.3323 31.3926C40.2539 31.2501 39.1578 31.3271 38.1099 31.6192C37.6198 31.7744 37.0971 31.7952 36.5962 31.6797C36.0953 31.5641 35.6346 31.3162 35.2621 30.962L16.706 12.9214C16.3407 12.5495 16.0776 12.0895 15.9421 11.5861C15.8067 11.0827 15.8035 10.5528 15.9329 10.0478C16.2112 8.92053 16.2376 7.74578 16.0102 6.60717C15.7003 5.01623 14.9191 3.55526 13.768 2.41412C12.617 1.27297 11.1493 0.504393 9.55577 0.208263C7.96221 -0.0878677 6.31641 0.102138 4.83224 0.753587C3.34808 1.40504 2.09417 2.48781 1.23342 3.86122C0.372678 5.23463 -0.0550986 6.83517 0.00568523 8.45487C0.0664691 10.0746 0.612995 11.6386 1.57426 12.9436C2.53552 14.2486 3.86708 15.2344 5.39589 15.7727C6.92471 16.3111 8.5801 16.3772 10.147 15.9625C10.6581 15.8145 11.1989 15.802 11.7163 15.9263C12.2336 16.0505 12.7098 16.3073 13.0979 16.6712L31.6797 34.802C32.0508 35.1708 32.3204 35.629 32.4626 36.1323C32.6048 36.6357 32.6148 37.1673 32.4916 37.6756C32.3622 38.2465 32.2974 38.83 32.2982 39.4153C32.298 40.0318 32.3716 40.6461 32.5173 41.2451C32.649 41.7591 32.6433 42.2987 32.5008 42.8098C32.3584 43.3209 32.0841 43.7856 31.7055 44.1574C28.9607 46.7346 25.6748 49.9561 22.3888 53.1777C19.1028 56.3992 15.7782 59.5434 13.0335 62.1979C12.6506 62.5575 12.1811 62.8118 11.6707 62.936C11.1604 63.0602 10.6265 63.0501 10.1212 62.9067C9.0124 62.6195 7.85514 62.5717 6.72643 62.7665C5.59771 62.9613 4.52341 63.3943 3.57503 64.0366C2.62665 64.6789 1.82594 65.5157 1.22615 66.4916C0.626357 67.4674 0.241242 68.5597 0.0964481 69.6959C-0.0483459 70.8322 0.0505043 71.9862 0.386394 73.0813C0.722284 74.1763 1.28752 75.1873 2.04451 76.0469C2.80149 76.9065 3.73285 77.595 4.77664 78.0667C5.82042 78.5384 6.95269 78.7824 8.0981 78.7824C8.79009 78.7843 9.47921 78.6933 10.147 78.5118C10.6476 78.3746 11.1751 78.3689 11.6785 78.4953C12.182 78.6218 12.6442 78.876 13.0206 79.2334C15.7653 81.9137 19.0771 85.1095 22.3888 88.2537L31.7184 97.274C32.0892 97.637 32.3573 98.0917 32.4954 98.5919C32.6334 99.0922 32.6366 99.62 32.5044 100.122C32.2649 101.243 32.2649 102.402 32.5044 103.524C32.7938 104.963 33.4704 106.295 34.4611 107.378C35.4519 108.461 36.7194 109.253 38.127 109.669C39.5346 110.085 41.029 110.109 42.4492 109.739C43.8694 109.368 45.1616 108.617 46.1866 107.567C47.2116 106.516 47.9305 105.206 48.266 103.777C48.6014 102.348 48.5407 100.854 48.0902 99.4576C47.6398 98.0606 46.8168 96.8131 45.7098 95.8493C44.6028 94.8855 43.2538 94.242 41.8082 93.9881L41.7567 93.9365Z" fill="#A9CCFF"/>
<path d="M74.0236 93.9367C72.8534 93.7248 71.6504 93.7821 70.5057 94.1042C69.9957 94.2538 69.4556 94.2684 68.9382 94.1464C68.4209 94.0244 67.9442 93.7701 67.5548 93.4083C61.0086 87.107 53.9599 80.3031 48.9858 75.458C48.6084 75.083 48.3369 74.615 48.1989 74.1012C48.0608 73.5875 48.0612 73.0464 48.1998 72.5328C48.5179 71.2638 48.5179 69.936 48.1998 68.667C48.0641 68.1522 48.0665 67.6107 48.2068 67.0972C48.347 66.5836 48.6202 66.1161 48.9987 65.7418C53.9857 60.9095 61.0473 54.1443 67.6063 47.8043C67.9938 47.4437 68.4682 47.1899 68.9833 47.0679C69.4984 46.9459 70.0363 46.9599 70.5444 47.1085C71.6921 47.4135 72.8922 47.4662 74.0622 47.2631C75.1267 47.0547 76.1383 46.6338 77.0363 46.0256C77.9344 45.4173 78.7006 44.6341 79.2891 43.723C79.8775 42.8118 80.2762 41.7913 80.4612 40.7225C80.6462 39.6537 80.6137 38.5586 80.3658 37.5026C80.1178 36.4466 79.6595 35.4515 79.0181 34.5768C78.3767 33.702 77.5655 32.9656 76.633 32.4116C75.7005 31.8575 74.6658 31.4973 73.5909 31.3523C72.5159 31.2073 71.4228 31.2806 70.3768 31.5678C69.8887 31.7219 69.3682 31.7422 68.8695 31.6266C68.3709 31.511 67.9124 31.2637 67.5419 30.9106L48.9729 12.8571C48.6065 12.4859 48.3427 12.026 48.2072 11.5223C48.0717 11.0187 48.0692 10.4885 48.1998 9.98351C48.4779 8.8606 48.5043 7.6901 48.2771 6.5558C47.9648 4.9686 47.1826 3.51195 46.0319 2.375C44.8812 1.23804 43.4153 0.473285 41.8245 0.180043C40.2336 -0.113199 38.5914 0.0786141 37.111 0.730576C35.6305 1.38254 34.3803 2.46453 33.5226 3.83607C32.665 5.2076 32.2394 6.80531 32.3013 8.42176C32.3632 10.0382 32.9097 11.5987 33.8697 12.9006C34.8298 14.2026 36.1591 15.1858 37.685 15.7226C39.2109 16.2595 40.8631 16.3252 42.4268 15.9111C42.9377 15.7605 43.4791 15.7467 43.997 15.8711C44.5149 15.9955 44.991 16.2537 45.3777 16.6199L63.9595 34.7378C64.3273 35.1112 64.5937 35.5722 64.7335 36.0774C64.8733 36.5825 64.8819 37.1149 64.7585 37.6243C64.6284 38.195 64.5636 38.7786 64.5652 39.3639C64.568 39.9837 64.6371 40.6015 64.7714 41.2066C64.9073 41.7193 64.905 42.2589 64.7647 42.7705C64.6243 43.2821 64.351 43.7473 63.9724 44.1189C61.2277 46.6961 57.9546 49.9048 54.6686 53.0747C51.3827 56.2447 48.058 59.4405 45.3133 62.095C44.9298 62.4579 44.4581 62.7142 43.945 62.8385C43.4319 62.9629 42.8952 62.9509 42.3882 62.8038C41.2793 62.5166 40.1221 62.4688 38.9934 62.6636C37.8646 62.8584 36.7904 63.2914 35.842 63.9337C34.8936 64.5759 34.0929 65.4128 33.4931 66.3886C32.8933 67.3645 32.5082 68.4568 32.3634 69.593C32.2186 70.7293 32.3174 71.8833 32.6533 72.9783C32.9892 74.0734 33.5545 75.0843 34.3114 75.944C35.0684 76.8036 35.9998 77.4921 37.0436 77.9638C38.0873 78.4355 39.2196 78.6794 40.365 78.6795C41.057 78.6814 41.7461 78.5904 42.4139 78.4089C42.9165 78.2706 43.4462 78.2643 43.9519 78.3907C44.4576 78.5172 44.9221 78.772 45.3004 79.1305C48.0452 81.8108 51.3569 85.0066 54.6686 88.1508L63.9982 97.1711C64.3646 97.5369 64.6287 97.9923 64.7644 98.4919C64.9001 98.9916 64.9025 99.5181 64.7714 100.019C64.532 101.145 64.532 102.308 64.7714 103.434C65.0608 104.873 65.7373 106.205 66.7281 107.288C67.7188 108.371 68.9863 109.163 70.3939 109.579C71.8015 109.995 73.2959 110.019 74.7161 109.649C76.1363 109.278 77.4285 108.527 78.4535 107.476C79.4785 106.426 80.1975 105.116 80.5329 103.687C80.8684 102.258 80.8076 100.764 80.3572 99.3675C79.9067 97.9706 79.0837 96.723 77.9767 95.7592C76.8697 94.7954 75.5208 94.1519 74.0751 93.898L74.0236 93.9367Z" fill="#F59022"/>
<path d="M106.342 93.9495C105.173 93.7359 103.972 93.7843 102.824 94.0912C102.317 94.2345 101.781 94.2445 101.269 94.1204C100.756 93.9962 100.284 93.7421 99.8989 93.3825C93.327 87.0554 86.2525 80.2129 81.2785 75.3419C80.9032 74.9681 80.6321 74.5028 80.492 73.992C80.3518 73.4812 80.3476 72.9426 80.4795 72.4297C80.6245 71.8261 80.698 71.2076 80.6986 70.5869C80.6988 69.9704 80.6252 69.3561 80.4795 68.7571C80.3489 68.2441 80.3538 67.7059 80.4938 67.1953C80.6339 66.6848 80.9043 66.2194 81.2785 65.8448C86.2654 61.0125 93.3656 54.17 99.9505 47.8042C100.334 47.4458 100.804 47.1922 101.314 47.068C101.824 46.9439 102.357 46.9534 102.863 47.0955C103.986 47.3897 105.16 47.4375 106.303 47.2357C107.447 47.0339 108.533 46.5872 109.488 45.9263C110.442 45.2653 111.243 44.4058 111.834 43.4065C112.426 42.4073 112.794 41.2919 112.914 40.137C113.029 39.0148 112.908 37.8809 112.558 36.8085C112.208 35.7361 111.636 34.7491 110.881 33.9111C110.126 33.0732 109.203 32.403 108.173 31.9439C107.142 31.4848 106.027 31.2469 104.899 31.2456C104.154 31.248 103.412 31.3521 102.695 31.5548C102.181 31.6908 101.641 31.6898 101.128 31.5519C100.615 31.414 100.146 31.144 99.7701 30.7688L81.2656 12.7282C80.8992 12.3624 80.635 11.907 80.4994 11.4073C80.3637 10.9077 80.3613 10.3812 80.4924 9.88036C80.7379 8.75966 80.7379 7.59912 80.4924 6.47842C80.2033 5.03873 79.5267 3.70527 78.5355 2.62182C77.5443 1.53836 76.2762 0.746005 74.8679 0.330183C73.4596 -0.0856385 71.9645 -0.109154 70.5437 0.262175C69.123 0.633504 67.8306 1.38559 66.8059 2.43734C65.7811 3.4891 65.0629 4.80062 64.7287 6.2305C64.3944 7.66038 64.4568 9.15439 64.9091 10.5514C65.3614 11.9485 66.1864 13.1955 67.2953 14.1582C68.4042 15.1209 69.7548 15.7626 71.2015 16.0142C72.3717 16.226 73.5747 16.1687 74.7194 15.8466C75.2324 15.6962 75.7757 15.6825 76.2956 15.8068C76.8155 15.9312 77.2938 16.1892 77.6832 16.5554L96.2006 34.596C96.5737 34.9658 96.8437 35.4267 96.9838 35.933C97.1239 36.4393 97.1294 36.9734 96.9996 37.4825C96.7077 38.7067 96.7077 39.9823 96.9996 41.2065C97.1361 41.7243 97.1329 42.269 96.9902 42.7852C96.8476 43.3013 96.5707 43.7704 96.1877 44.1446L86.9742 53.0102C83.6624 56.206 80.3507 59.4533 77.6059 62.0305C77.2193 62.3968 76.7426 62.6541 76.2243 62.7763C75.706 62.8985 75.1645 62.8813 74.655 62.7264C73.5316 62.4284 72.3573 62.3758 71.2118 62.5723C70.0663 62.7688 68.9765 63.2098 68.0167 63.8652C67.0569 64.5205 66.2495 65.375 65.6494 66.3703C65.0494 67.3657 64.6708 68.4786 64.5394 69.6334C64.4143 70.7617 64.5287 71.9037 64.8752 72.9848C65.2217 74.0658 65.7925 75.0616 66.5503 75.9069C67.308 76.7522 68.2357 77.4281 69.2726 77.8903C70.3094 78.3525 71.4322 78.5907 72.5674 78.5892C73.2854 78.5871 74.0002 78.4918 74.6937 78.3057C75.1967 78.1595 75.7293 78.148 76.2381 78.2724C76.747 78.3968 77.2142 78.6527 77.5931 79.0145C80.3378 81.6948 83.6624 84.9034 86.987 88.1121C90.3116 91.3207 93.4301 94.4005 96.2135 97.0293C96.5854 97.3941 96.8532 97.8516 96.9891 98.3545C97.1251 98.8574 97.1242 99.3875 96.9867 99.89C96.6047 101.463 96.7039 103.114 97.2713 104.629C97.8386 106.145 98.8481 107.455 100.169 108.391C101.49 109.326 103.061 109.843 104.679 109.875C106.297 109.907 107.887 109.452 109.244 108.57C110.6 107.687 111.661 106.418 112.287 104.926C112.914 103.433 113.078 101.788 112.759 100.201C112.439 98.6146 111.65 97.1607 110.495 96.0277C109.339 94.8946 107.87 94.1347 106.278 93.8464L106.342 93.9495Z" fill="#966CD5"/>
</svg>
