<svg width="26" height="25" viewBox="0 0 26 25" fill="none" xmlns="http://www.w3.org/2000/svg">
<path d="M16.0868 3.39928C13.7196 2.53673 11.1065 2.6499 8.82266 3.71391C6.53879 4.77793 4.77114 6.70562 3.90858 9.07292C3.04602 11.4402 3.1592 14.0532 4.22322 16.3371C5.28723 18.621 7.21492 20.3886 9.58222 21.2512C11.9495 22.1137 14.5625 22.0006 16.8464 20.9365C19.1303 19.8725 20.8979 17.9448 21.7605 15.5775C22.623 13.2102 22.5099 10.5972 21.4458 8.31336C20.3818 6.02949 18.4541 4.26184 16.0868 3.39928V3.39928ZM11.0051 17.3461C10.7092 17.2383 10.4682 17.0173 10.3352 16.7319C10.2022 16.4464 10.188 16.1197 10.2958 15.8238C10.4037 15.5278 10.6247 15.2869 10.9102 15.1539C11.1957 15.0209 11.5223 15.0068 11.8182 15.1146C12.114 15.2224 12.355 15.4433 12.488 15.7288C12.621 16.0143 12.6353 16.341 12.5274 16.637C12.4196 16.9328 12.1985 17.1738 11.9131 17.3068C11.6276 17.4398 11.301 17.4539 11.0051 17.3461ZM13.5438 13.8475L11.3122 13.0345L13.5481 6.89796L15.7797 7.71107L13.5438 13.8475Z" fill="black"/>
</svg>
