<svg width="23" height="14" viewBox="0 0 23 14" fill="none" xmlns="http://www.w3.org/2000/svg">
<path d="M5.27631 9.73224C4.94162 9.40373 4.6365 9.05541 4.36039 8.69263C2.69347 8.72103 1.16451 9.22486 0.010376 10.0734C1.07675 11.6507 2.9722 12.8783 5.27535 13.2766C7.37694 13.64 9.38877 13.2375 10.8906 12.3076L10.3026 12.2378C8.48682 12.0221 6.70156 11.1322 5.2761 9.73221L5.27631 9.73224Z" fill="white"/>
<path d="M10.3643 11.72C9.24472 10.2876 8.61493 8.38733 8.61493 6.35825C8.61493 6.22629 8.61866 6.09514 8.62402 5.96448C6.98727 4.44266 4.96845 3.6777 3.13425 3.7306C3.11347 5.63498 3.97421 7.72227 5.64163 9.35998C7.03572 10.7287 8.73313 11.5262 10.3644 11.7198L10.3643 11.72Z" fill="white"/>
<path d="M18.4301 8.69264C18.1544 9.0554 17.8491 9.40371 17.5146 9.73226C16.0891 11.1323 14.3039 12.0221 12.4881 12.2378L11.9001 12.3076C13.4022 13.2374 15.4141 13.6399 17.5153 13.2765C19.8187 12.8781 21.7141 11.6509 22.7807 10.0733C21.6265 9.22486 20.0977 8.72105 18.4303 8.69263L18.4301 8.69264Z" fill="white"/>
<path d="M14.1761 6.3582C14.1761 8.38707 13.5465 10.2874 12.4266 11.72C14.0581 11.5264 15.7557 10.7289 17.1493 9.35999C18.8171 7.72229 19.6776 5.63483 19.657 3.73061C17.8223 3.67754 15.804 4.44268 14.1672 5.9645C14.1728 6.09548 14.1765 6.22647 14.1765 6.35843L14.1761 6.3582Z" fill="white"/>
<path d="M11.3956 0.79834C10.0228 2.11793 9.13638 4.19467 9.13638 6.53243C9.13638 8.86986 10.0228 10.9464 11.3956 12.2665C12.7684 10.9468 13.6549 8.87003 13.6549 6.53243C13.6549 4.195 12.7684 2.11843 11.3956 0.79834Z" fill="white"/>
<path d="M4.00176 8.18496C3.51661 7.45034 3.15029 6.66672 2.91623 5.86328C2.12888 5.87821 1.37447 6.01309 0.688538 6.26208C0.94304 7.05966 1.37073 7.83729 1.94792 8.54645C2.60007 8.34778 3.29119 8.22426 4.0018 8.18499L4.00176 8.18496Z" fill="white"/>
<path d="M20.9896 8.54645C21.5669 7.83717 21.9947 7.05953 22.2491 6.26208C21.5633 6.01293 20.8087 5.87821 20.021 5.86328C19.7871 6.66672 19.421 7.4505 18.936 8.18497C19.6465 8.22424 20.3375 8.34776 20.9896 8.54643V8.54645Z" fill="white"/>
<path d="M9.43858 2.68885C8.79665 2.1073 8.0867 1.65136 7.35307 1.36133C6.99875 2.16427 6.809 3.09302 6.78955 4.06491C7.45923 4.39781 8.10116 4.82065 8.69198 5.32703C8.80966 4.39101 9.06286 3.49911 9.43862 2.68885H9.43858Z" fill="white"/>
<path d="M16.0425 4.06515C16.023 3.09323 15.8337 2.16451 15.4786 1.36157C14.7451 1.65146 14.0355 2.10788 13.3932 2.6891C13.769 3.49935 14.0222 4.39092 14.1399 5.32728C14.7308 4.82085 15.3728 4.39806 16.0425 4.06515Z" fill="white"/>
</svg>
