<svg width="35" height="35" viewBox="0 0 35 35" fill="none" xmlns="http://www.w3.org/2000/svg">
<path d="M17.5419 30.7916C24.9058 30.7916 30.8753 24.8221 30.8753 17.4583C30.8753 10.0945 24.9058 4.125 17.5419 4.125C10.1782 4.125 4.20862 10.0945 4.20862 17.4583C4.20862 24.8221 10.1782 30.7916 17.5419 30.7916Z" fill="url(#paint0_radial_0_277)"/>
<path opacity="0.5" d="M17.5419 30.7916C24.9058 30.7916 30.8753 24.8221 30.8753 17.4583C30.8753 10.0945 24.9058 4.125 17.5419 4.125C10.1782 4.125 4.20862 10.0945 4.20862 17.4583C4.20862 24.8221 10.1782 30.7916 17.5419 30.7916Z" fill="url(#paint1_radial_0_277)"/>
<path d="M17.5419 30.7916C24.9058 30.7916 30.8753 24.8221 30.8753 17.4583C30.8753 10.0945 24.9058 4.125 17.5419 4.125C10.1782 4.125 4.20862 10.0945 4.20862 17.4583C4.20862 24.8221 10.1782 30.7916 17.5419 30.7916Z" fill="url(#paint2_radial_0_277)"/>
<path d="M17.5419 30.7916C24.9058 30.7916 30.8753 24.8221 30.8753 17.4583C30.8753 10.0945 24.9058 4.125 17.5419 4.125C10.1782 4.125 4.20862 10.0945 4.20862 17.4583C4.20862 24.8221 10.1782 30.7916 17.5419 30.7916Z" fill="url(#paint3_radial_0_277)"/>
<path d="M26.7339 21.8918C26.7422 21.8168 26.7506 21.7418 26.7589 21.6751C26.7422 21.4335 26.5922 21.2085 26.3506 21.1251C26.2256 21.0751 26.0922 21.0751 25.9589 21.1084C23.2339 21.8668 20.4006 22.2585 17.5422 22.2585C14.6839 22.2585 11.8505 21.8751 9.12553 21.1084C9.00054 21.0751 8.85887 21.0751 8.73388 21.1251C8.50056 21.2168 8.35054 21.4251 8.32556 21.6668C8.33387 21.7501 8.34223 21.8334 8.3589 21.9251L8.50887 22.5501C8.54221 22.6668 8.58386 22.7918 8.63387 22.9251C9.56723 25.1085 12.0006 28.9501 17.5506 28.9501C23.0922 28.9501 25.5256 25.1001 26.4672 22.9168C26.5089 22.8001 26.5505 22.6918 26.5756 22.5834L26.7339 21.8918Z" fill="url(#paint4_radial_0_277)"/>
<path d="M17.5417 28.3417C19.6917 28.3417 21.3417 27.7251 22.6 26.8501C21.2167 26.2084 19.55 25.7917 17.5417 25.7917C15.5333 25.7917 13.8583 26.2084 12.475 26.8584C13.7416 27.7334 15.3917 28.3417 17.5417 28.3417Z" fill="url(#paint5_radial_0_277)"/>
<path d="M26.5753 22.5584L26.7254 21.9168C26.742 21.8251 26.7503 21.7418 26.7503 21.6668C26.7337 21.4251 26.5753 21.2168 26.342 21.1251C26.217 21.0751 26.0837 21.0751 25.9504 21.1084C23.2254 21.8668 20.392 22.2585 17.5337 22.2585C14.6753 22.2585 11.842 21.8751 9.11703 21.1084C8.99204 21.0751 8.85037 21.0751 8.72538 21.1251C8.49202 21.2168 8.34204 21.4251 8.31702 21.6668C8.32537 21.7418 8.33369 21.8334 8.34204 21.9251L8.49202 22.5584C8.52535 22.6751 8.567 22.8001 8.61701 22.9251C8.99204 23.8084 9.617 24.9584 10.5837 26.0168C9.67537 24.9335 10.792 24.3418 12.8003 24.5835C14.8004 24.8251 17.5337 24.8334 17.5337 24.8334C17.5337 24.8334 20.267 24.8251 22.267 24.5835C24.267 24.3418 25.392 24.9418 24.4837 26.0168C25.4587 24.9584 26.0754 23.8084 26.4503 22.9251C26.5003 22.7918 26.542 22.6751 26.5753 22.5584Z" fill="url(#paint6_linear_0_277)"/>
<path d="M17.5418 22.8668C14.6585 22.8668 11.8085 22.4835 9.05017 21.7168L9.08351 22.0918C9.15018 22.8084 9.67518 23.4001 10.3752 23.5585C12.7168 24.0751 15.1169 24.3334 17.5335 24.3334C20.1418 24.3334 22.7252 24.0334 25.2418 23.4335C25.6168 23.3418 25.8918 23.0251 25.9335 22.6418L26.0252 21.7251C23.2752 22.4835 20.4252 22.8668 17.5418 22.8668Z" fill="url(#paint7_radial_0_277)"/>
<path d="M12.1754 9.75002C11.2754 10.1584 10.6837 10.975 10.5171 11.875C9.72542 11.4 8.72538 11.3 7.8254 11.7084C6.36708 12.3667 5.7254 14.0834 6.38375 15.5334C7.83371 18.7417 13.9504 19.4584 13.9504 19.4584C13.9504 19.4584 17.4504 14.4 16.0004 11.1834C15.3504 9.74171 13.6337 9.09171 12.1754 9.75002Z" fill="url(#paint8_radial_0_277)"/>
<path opacity="0.5" d="M13.3759 9.4917C15.8592 11.1417 15.8925 14.7584 14.6842 16.3334C13.3508 18.075 11.9425 18.175 8.8092 17.8833C11.0842 19.125 13.9509 19.4583 13.9509 19.4583C13.9509 19.4583 17.4509 14.4 16.0009 11.1833C15.5259 10.1333 14.4759 9.50001 13.3759 9.4917Z" fill="url(#paint9_radial_0_277)"/>
<path opacity="0.5" d="M12.1754 9.75002C11.2754 10.1584 10.6837 10.975 10.5171 11.875C9.72542 11.4 8.72538 11.3 7.8254 11.7084C6.36708 12.3667 5.7254 14.0834 6.38375 15.5334C7.83371 18.7417 13.9504 19.4584 13.9504 19.4584C13.9504 19.4584 17.4504 14.4 16.0004 11.1834C15.3504 9.74171 13.6337 9.09171 12.1754 9.75002Z" fill="url(#paint10_radial_0_277)"/>
<path opacity="0.5" d="M12.1754 9.75002C11.2754 10.1584 10.6837 10.975 10.5171 11.875C9.72542 11.4 8.72538 11.3 7.8254 11.7084C6.36708 12.3667 5.7254 14.0834 6.38375 15.5334C7.83371 18.7417 13.9504 19.4584 13.9504 19.4584C13.9504 19.4584 17.4504 14.4 16.0004 11.1834C15.3504 9.74171 13.6337 9.09171 12.1754 9.75002Z" fill="url(#paint11_radial_0_277)"/>
<path opacity="0.24" d="M9.83362 12.1001C10.3753 12.6001 10.1753 13.7084 9.37525 14.5751C8.57528 15.4418 7.49194 15.7334 6.94192 15.2334C6.40025 14.7334 6.60027 13.6251 7.40029 12.7584C8.20026 11.8918 9.28359 11.6001 9.83362 12.1001Z" fill="url(#paint12_radial_0_277)"/>
<path opacity="0.24" d="M12.8254 10.1416C13.3837 10.3832 13.5254 11.3082 13.1337 12.2083C12.742 13.0999 11.9754 13.6249 11.4087 13.3833C10.842 13.1416 10.7087 12.2166 11.1004 11.3166C11.4921 10.4249 12.2587 9.89992 12.8254 10.1416Z" fill="url(#paint13_radial_0_277)"/>
<path opacity="0.32" d="M12.5417 10.4332C14.0667 10.2833 16.2167 11.6666 15.1833 15.0666C14.5667 17.0999 13.5084 18.4666 11.6 18.9833C12.925 19.3499 13.9583 19.4749 13.9583 19.4749C13.9583 19.4749 17.4583 14.4166 16.0084 11.1999C15.35 9.74159 13.6334 9.09991 12.1834 9.75826C11.2834 10.1666 10.6917 10.9833 10.525 11.8832C10.525 11.8832 11.425 10.5416 12.5417 10.4332Z" fill="url(#paint14_linear_0_277)"/>
<path d="M27.4588 11.7001C26.5589 11.2917 25.5505 11.3918 24.7672 11.8751C24.6005 10.9667 24.0089 10.1584 23.1089 9.75008C21.6505 9.10009 19.9422 9.75008 19.2839 11.2084C17.8422 14.4168 21.3672 19.4667 21.3672 19.4667C21.3672 19.4667 27.4755 18.7334 28.9172 15.5167C29.5672 14.0668 28.9172 12.3501 27.4588 11.7001Z" fill="url(#paint15_radial_0_277)"/>
<path opacity="0.5" d="M28.4507 12.425C28.8674 15.3751 26.1757 17.8 24.1924 17.9417C22.0007 18.1 21.0007 17.1084 19.134 14.5751C19.709 17.1 21.3591 19.4751 21.3591 19.4751C21.3591 19.4751 27.4674 18.7417 28.9091 15.525C29.3924 14.4501 29.1757 13.25 28.4507 12.425Z" fill="url(#paint16_radial_0_277)"/>
<path opacity="0.5" d="M27.4588 11.7001C26.5589 11.2917 25.5505 11.3918 24.7672 11.8751C24.6005 10.9667 24.0089 10.1584 23.1089 9.75008C21.6505 9.10009 19.9422 9.75008 19.2839 11.2084C17.8422 14.4168 21.3672 19.4667 21.3672 19.4667C21.3672 19.4667 27.4755 18.7334 28.9172 15.5167C29.5672 14.0668 28.9172 12.3501 27.4588 11.7001Z" fill="url(#paint17_radial_0_277)"/>
<path opacity="0.5" d="M27.4588 11.7001C26.5589 11.2917 25.5505 11.3918 24.7672 11.8751C24.6005 10.9667 24.0089 10.1584 23.1089 9.75008C21.6505 9.10009 19.9422 9.75008 19.2839 11.2084C17.8422 14.4168 21.3672 19.4667 21.3672 19.4667C21.3672 19.4667 27.4755 18.7334 28.9172 15.5167C29.5672 14.0668 28.9172 12.3501 27.4588 11.7001Z" fill="url(#paint18_radial_0_277)"/>
<path opacity="0.24" d="M24.1425 11.5003C24.1258 12.242 23.1591 12.8253 21.9841 12.8003C20.8091 12.7753 19.8674 12.1586 19.8758 11.417C19.8925 10.6753 20.8591 10.092 22.0341 10.117C23.2175 10.142 24.1591 10.7586 24.1425 11.5003Z" fill="url(#paint19_radial_0_277)"/>
<path opacity="0.24" d="M27.6003 12.4416C27.792 13.025 27.192 13.7416 26.267 14.0417C25.342 14.3417 24.4336 14.1166 24.242 13.5333C24.0503 12.95 24.6503 12.2333 25.5753 11.9333C26.5003 11.625 27.4086 11.8583 27.6003 12.4416Z" fill="url(#paint20_radial_0_277)"/>
<path opacity="0.32" d="M27.1921 12.4167C28.3171 13.4584 28.7005 15.9834 25.4754 17.4668C23.5421 18.3501 21.8171 18.4667 20.1671 17.3834C20.7671 18.6168 21.3671 19.4751 21.3671 19.4751C21.3671 19.4751 27.4755 18.7418 28.9171 15.5251C29.5671 14.0668 28.9171 12.3584 27.4588 11.7001C26.5588 11.2917 25.5505 11.3918 24.7671 11.8751C24.7671 11.8668 26.3755 11.6584 27.1921 12.4167Z" fill="url(#paint21_linear_0_277)"/>
<defs>
<radialGradient id="paint0_radial_0_277" cx="0" cy="0" r="1" gradientUnits="userSpaceOnUse" gradientTransform="translate(14.9186 12.0548) scale(16.0849 16.0849)">
<stop stop-color="#FFE030"/>
<stop offset="1" stop-color="#FFB92E"/>
</radialGradient>
<radialGradient id="paint1_radial_0_277" cx="0" cy="0" r="1" gradientUnits="userSpaceOnUse" gradientTransform="translate(14.9186 12.0548) scale(12.6547)">
<stop stop-color="#FFEA5F"/>
<stop offset="1" stop-color="#FFBC47" stop-opacity="0"/>
</radialGradient>
<radialGradient id="paint2_radial_0_277" cx="0" cy="0" r="1" gradientUnits="userSpaceOnUse" gradientTransform="translate(10.1401 17.5753) rotate(32.7366) scale(7.05946 5.15261)">
<stop stop-color="#EB672A" stop-opacity="0.5"/>
<stop offset="0.4286" stop-color="#DC641B" stop-opacity="0.2846"/>
<stop offset="0.995" stop-color="#C25E00" stop-opacity="0"/>
</radialGradient>
<radialGradient id="paint3_radial_0_277" cx="0" cy="0" r="1" gradientUnits="userSpaceOnUse" gradientTransform="translate(24.9516 17.5644) rotate(147.263) scale(7.05946 5.15261)">
<stop stop-color="#EB672A" stop-opacity="0.5"/>
<stop offset="0.4286" stop-color="#DC641B" stop-opacity="0.2846"/>
<stop offset="0.995" stop-color="#C25E00" stop-opacity="0"/>
</radialGradient>
<radialGradient id="paint4_radial_0_277" cx="0" cy="0" r="1" gradientUnits="userSpaceOnUse" gradientTransform="translate(17.5409 25.0193) scale(7.08457)">
<stop offset="0.00132565" stop-color="#7A4400"/>
<stop offset="1" stop-color="#643800"/>
</radialGradient>
<radialGradient id="paint5_radial_0_277" cx="0" cy="0" r="1" gradientUnits="userSpaceOnUse" gradientTransform="translate(17.6431 27.3748) scale(5.63671 1.70432)">
<stop offset="0.2479" stop-color="#FF0000"/>
<stop offset="1" stop-color="#C20000"/>
</radialGradient>
<linearGradient id="paint6_linear_0_277" x1="26.6542" y1="23.5538" x2="8.54058" y2="23.5538" gradientUnits="userSpaceOnUse">
<stop offset="0.00132565" stop-color="#3C2200"/>
<stop offset="0.5" stop-color="#512D00"/>
<stop offset="1" stop-color="#3C2200"/>
</linearGradient>
<radialGradient id="paint7_radial_0_277" cx="0" cy="0" r="1" gradientUnits="userSpaceOnUse" gradientTransform="translate(17.5411 23.0244) scale(15.5386 15.5386)">
<stop offset="0.00132565" stop-color="white"/>
<stop offset="1" stop-color="#A9BCBE"/>
</radialGradient>
<radialGradient id="paint8_radial_0_277" cx="0" cy="0" r="1" gradientUnits="userSpaceOnUse" gradientTransform="translate(9.73566 13.7766) rotate(-53.7393) scale(8.25794 6.54973)">
<stop offset="0.2479" stop-color="#FF0000"/>
<stop offset="0.8639" stop-color="#C20000"/>
</radialGradient>
<radialGradient id="paint9_radial_0_277" cx="0" cy="0" r="1" gradientUnits="userSpaceOnUse" gradientTransform="translate(9.71352 13.231) rotate(-53.7394) scale(7.10981 5.63911)">
<stop offset="0.2479" stop-color="#FF0000"/>
<stop offset="1" stop-color="#C20000"/>
</radialGradient>
<radialGradient id="paint10_radial_0_277" cx="0" cy="0" r="1" gradientUnits="userSpaceOnUse" gradientTransform="translate(9.73566 13.7766) rotate(-53.7393) scale(8.25794 6.54973)">
<stop stop-color="white" stop-opacity="0.25"/>
<stop offset="1" stop-color="white" stop-opacity="0"/>
</radialGradient>
<radialGradient id="paint11_radial_0_277" cx="0" cy="0" r="1" gradientUnits="userSpaceOnUse" gradientTransform="translate(13.5915 15.1252) rotate(-50.6229) scale(6.02761 2.97807)">
<stop stop-color="#BD2719" stop-opacity="0.25"/>
<stop offset="1" stop-color="#BD2719" stop-opacity="0"/>
</radialGradient>
<radialGradient id="paint12_radial_0_277" cx="0" cy="0" r="1" gradientUnits="userSpaceOnUse" gradientTransform="translate(8.38681 13.6799) rotate(-46.0208) scale(2.14269 1.33103)">
<stop stop-color="white"/>
<stop offset="1" stop-color="white" stop-opacity="0"/>
</radialGradient>
<radialGradient id="paint13_radial_0_277" cx="0" cy="0" r="1" gradientUnits="userSpaceOnUse" gradientTransform="translate(12.1164 11.7719) rotate(-65.0908) scale(1.77402 1.10207)">
<stop stop-color="white"/>
<stop offset="1" stop-color="white" stop-opacity="0"/>
</radialGradient>
<linearGradient id="paint14_linear_0_277" x1="16.5009" y1="22.4503" x2="11.7526" y2="9.46719" gradientUnits="userSpaceOnUse">
<stop stop-color="#860805"/>
<stop offset="1" stop-color="#BD2719" stop-opacity="0"/>
</linearGradient>
<radialGradient id="paint15_radial_0_277" cx="0" cy="0" r="1" gradientUnits="userSpaceOnUse" gradientTransform="translate(22.8068 12.5371) rotate(-5.26571) scale(8.25786 6.54986)">
<stop offset="0.2479" stop-color="#FF0000"/>
<stop offset="0.8639" stop-color="#C20000"/>
</radialGradient>
<radialGradient id="paint16_radial_0_277" cx="0" cy="0" r="1" gradientUnits="userSpaceOnUse" gradientTransform="translate(23.2006 12.1585) rotate(-5.26571) scale(7.10972 5.6392)">
<stop offset="0.2479" stop-color="#FF0000"/>
<stop offset="1" stop-color="#C20000"/>
</radialGradient>
<radialGradient id="paint17_radial_0_277" cx="0" cy="0" r="1" gradientUnits="userSpaceOnUse" gradientTransform="translate(22.8068 12.5371) rotate(-5.26571) scale(8.25786 6.54986)">
<stop stop-color="white" stop-opacity="0.25"/>
<stop offset="1" stop-color="white" stop-opacity="0"/>
</radialGradient>
<radialGradient id="paint18_radial_0_277" cx="0" cy="0" r="1" gradientUnits="userSpaceOnUse" gradientTransform="translate(24.3689 16.308) rotate(-2.1516) scale(6.02774 2.97811)">
<stop stop-color="#BD2719" stop-opacity="0.25"/>
<stop offset="1" stop-color="#BD2719" stop-opacity="0"/>
</radialGradient>
<radialGradient id="paint19_radial_0_277" cx="0" cy="0" r="1" gradientUnits="userSpaceOnUse" gradientTransform="translate(22.0135 11.4686) rotate(2.44968) scale(2.14273 1.33118)">
<stop stop-color="white"/>
<stop offset="1" stop-color="white" stop-opacity="0"/>
</radialGradient>
<radialGradient id="paint20_radial_0_277" cx="0" cy="0" r="1" gradientUnits="userSpaceOnUse" gradientTransform="translate(25.9324 12.981) rotate(-16.6195) scale(1.77408 1.10208)">
<stop stop-color="white"/>
<stop offset="1" stop-color="white" stop-opacity="0"/>
</radialGradient>
<linearGradient id="paint21_linear_0_277" x1="20.8245" y1="23.3515" x2="27.396" y2="11.1899" gradientUnits="userSpaceOnUse">
<stop stop-color="#860805"/>
<stop offset="1" stop-color="#BD2719" stop-opacity="0"/>
</linearGradient>
</defs>
</svg>
