<svg width="55" height="54" viewBox="0 0 55 54" fill="none" xmlns="http://www.w3.org/2000/svg">
<path fill-rule="evenodd" clip-rule="evenodd" d="M27.5002 10.4948L27.4052 13.0435C27.1244 20.5796 21.0433 26.6234 13.4644 26.8989L10.6821 27L13.4644 27.1011C21.0433 27.3766 27.1244 33.4204 27.4052 40.9565L27.5002 43.5052L27.5952 40.9565C27.8761 33.4204 33.9572 27.3766 41.536 27.1011L44.3184 27L41.536 26.8989C33.9572 26.6234 27.8761 20.5796 27.5952 13.0435L27.5002 10.4948ZM27.1473 1L27.8532 1L28.3011 13.0175C28.5683 20.186 34.3527 25.935 41.5618 26.197L54.0002 26.6491V27.3509L41.5618 27.803C34.3527 28.065 28.5683 33.814 28.3011 40.9825L27.8532 53H27.1473L26.6994 40.9825C26.4322 33.814 20.6478 28.065 13.4386 27.803L1.00024 27.3509L1.00024 26.6491L13.4386 26.197C20.6478 25.935 26.4322 20.186 26.6994 13.0175L27.1473 1Z" fill="black" stroke="black"/>
</svg>
