<svg width="55" height="54" viewBox="0 0 55 54" fill="none" xmlns="http://www.w3.org/2000/svg">
<path fill-rule="evenodd" clip-rule="evenodd" d="M28.4784 10.3697L28.201 12.9051C27.3807 20.4016 20.8821 25.994 13.303 25.7256L10.5205 25.627L13.2885 25.9273C20.8281 26.7453 26.4604 33.2093 26.2004 40.7462L26.1125 43.2951L26.3899 40.7598C27.2102 33.2632 33.7088 27.6708 41.2879 27.9393L44.0704 28.0378L41.3024 27.7375C33.7628 26.9196 28.1305 20.4555 28.3905 12.9187L28.4784 10.3697ZM28.8069 0.874001L29.5109 0.92459L29.0964 12.9433C28.8491 20.1125 34.2066 26.2613 41.3784 27.0393L53.7524 28.3817L53.7021 29.0818L41.2633 28.6412C34.0539 28.3858 27.8723 33.7054 27.0921 40.8363L25.784 52.7909L25.08 52.7403L25.4945 40.7215C25.7418 33.5524 20.3843 27.4036 13.2125 26.6256L0.838438 25.2832L0.888744 24.5831L13.3276 25.0237C20.5369 25.279 26.7185 19.9594 27.4988 12.8285L28.8069 0.874001Z" fill="black" stroke="black"/>
</svg>
