<svg width="56" height="98" viewBox="0 0 56 98" fill="none" xmlns="http://www.w3.org/2000/svg">
<path d="M2.50911 54L3.49617 53.8396L3.49307 53.8206L3.48924 53.8016L2.50911 54ZM55.2824 90.1341C55.6326 89.707 55.5703 89.0769 55.1432 88.7267L48.1838 83.02C47.7567 82.6698 47.1266 82.7321 46.7764 83.1592C46.4262 83.5863 46.4886 84.2164 46.9156 84.5666L53.1018 89.6392L48.0291 95.8253C47.6789 96.2524 47.7412 96.8825 48.1683 97.2327C48.5954 97.5829 49.2255 97.5206 49.5757 97.0935L55.2824 90.1341ZM46.5091 0.5C37.227 0.5 24.2905 5.34175 14.5282 14.4176C4.72297 23.5334 -1.95254 36.9955 1.52898 54.1984L3.48924 53.8016C0.170765 37.4045 6.49521 24.6166 15.89 15.8824C25.3277 7.10825 37.7911 2.5 46.5091 2.5V0.5ZM1.52206 54.1604C2.63546 61.0121 6.62467 70.9991 14.9881 78.83C23.386 86.6931 36.1326 92.3223 54.6075 90.4951L54.4107 88.5049C36.4856 90.2777 24.3155 84.8236 16.3551 77.37C8.36022 69.8843 4.54943 60.3213 3.49617 53.8396L1.52206 54.1604Z" fill="black"/>
</svg>
