<svg width="24" height="24" viewBox="0 0 24 24" fill="none" xmlns="http://www.w3.org/2000/svg">
<path fill-rule="evenodd" clip-rule="evenodd" d="M21.068 0C22.6864 0 24.0002 1.31391 24.0002 2.93222V21.0678C24.0002 22.6861 22.6863 24 21.068 24H2.93246C1.31415 24 0.000244141 22.6861 0.000244141 21.0678V2.93222C0.000244141 1.31391 1.3141 0 2.93246 0H21.068V0ZM9.1652 19.9005C15.5373 19.9005 19.0215 14.6204 19.0215 10.0442C19.0215 9.89334 19.0215 9.74245 19.0143 9.59878C19.6896 9.1103 20.2787 8.49966 20.7457 7.80281C20.1279 8.07581 19.4597 8.26261 18.7557 8.34881C19.4741 7.91775 20.0201 7.24247 20.2787 6.43069C19.6106 6.8258 18.8707 7.11319 18.0804 7.2712C17.4482 6.59592 16.5503 6.17925 15.5517 6.17925C13.6408 6.17925 12.0891 7.731 12.0891 9.64191C12.0891 9.91491 12.1178 10.1807 12.1824 10.4321C9.3017 10.2885 6.75142 8.90916 5.04165 6.81145C4.74709 7.3215 4.57468 7.91775 4.57468 8.54995C4.57468 9.74967 5.18532 10.8129 6.11921 11.4307C5.5517 11.4163 5.02009 11.2583 4.55312 10.9996V11.0428C4.55312 12.7238 5.74567 14.1175 7.33332 14.4407C7.04598 14.5198 6.73707 14.5629 6.42095 14.5629C6.19824 14.5629 5.98276 14.5413 5.76723 14.4982C6.20546 15.8775 7.48417 16.8761 8.99996 16.9048C7.81463 17.8316 6.3204 18.3847 4.69684 18.3847C4.41667 18.3847 4.14367 18.3704 3.87067 18.3344C5.38646 19.3258 7.21117 19.9005 9.1652 19.9005V19.9005Z" fill="black"/>
</svg>
