<svg width="53" height="114" viewBox="0 0 53 114" fill="none" xmlns="http://www.w3.org/2000/svg">
<path d="M51.5952 58L50.5959 57.964L50.5958 57.9651L51.5952 58ZM0.812935 105.877C0.468902 106.309 0.540247 106.938 0.972288 107.282L8.01281 112.889C8.44485 113.233 9.07398 113.161 9.41802 112.729C9.76205 112.297 9.6907 111.668 9.25866 111.324L3.00042 106.341L7.98384 100.082C8.32787 99.6504 8.25652 99.0212 7.82448 98.6772C7.39244 98.3332 6.76331 98.4045 6.41928 98.8366L0.812935 105.877ZM1.56638 1.99958C10.0595 2.24458 22.7325 5.34112 33.0611 13.8108C43.3434 22.2424 51.3851 36.0632 50.5959 57.964L52.5946 58.036C53.4053 35.5368 45.1137 21.1076 34.3293 12.2642C23.5913 3.45888 10.4643 0.255422 1.62405 0.000415802L1.56638 1.99958ZM50.5958 57.9651C50.3524 64.9441 47.6134 75.7614 40.1675 85.3622C32.7454 94.9322 20.6148 103.337 1.48253 105.506L1.70789 107.494C21.3756 105.263 33.995 96.5845 41.7479 86.5878C49.477 76.6219 52.3381 65.3892 52.5946 58.0349L50.5958 57.9651Z" fill="black"/>
</svg>
