<svg width="24" height="24" viewBox="0 0 24 24" fill="none" xmlns="http://www.w3.org/2000/svg">
<path fill-rule="evenodd" clip-rule="evenodd" d="M21.068 0C22.6864 0 24.0002 1.31391 24.0002 2.93222V21.0678C24.0002 22.6861 22.6863 24 21.068 24H2.93246C1.31415 24 0.000244141 22.6861 0.000244141 21.0678V2.93222C0.000244141 1.31391 1.3141 0 2.93246 0H21.068V0ZM7.52185 19.8412V9.26067H4.00435V19.8412H7.52185ZM20.2034 19.8412V13.7737C20.2034 10.5237 18.4681 9.01186 16.1543 9.01186C14.2884 9.01186 13.4527 10.038 12.9847 10.7587V9.26067H9.4681C9.51474 10.2535 9.4681 19.8412 9.4681 19.8412H12.9847V13.9323C12.9847 13.616 13.0074 13.2998 13.1006 13.0738C13.3544 12.4421 13.9335 11.7878 14.905 11.7878C16.177 11.7878 16.6866 12.7584 16.6866 14.1802V19.8412H20.2034V19.8412ZM5.78687 4.15884C4.5834 4.15884 3.79712 4.95005 3.79712 5.98706C3.79712 7.00228 4.55949 7.81528 5.74032 7.81528H5.76301C6.98949 7.81528 7.75295 7.00228 7.75295 5.98706C7.73021 4.9515 6.99165 4.16109 5.78687 4.15884V4.15884Z" fill="black"/>
</svg>
