<svg width="9" height="5" viewBox="0 0 9 5" fill="none" xmlns="http://www.w3.org/2000/svg">
<path d="M5.0774 4.77537L8.82803 1.0252C8.95459 0.897715 9.01536 0.733635 8.99704 0.568892C8.97871 0.404149 8.88279 0.25217 8.73026 0.146236C8.57774 0.040302 8.38105 -0.0109533 8.18326 0.00369428C7.98548 0.0183418 7.80272 0.0976983 7.67501 0.224386L4.50087 3.39836L1.32672 0.224386C1.19919 0.0972098 1.01628 0.0174147 0.81819 0.00252908C0.620096 -0.0123566 0.423012 0.0388847 0.27023 0.144997C0.117447 0.251108 0.0214629 0.403413 0.0033609 0.568453C-0.0147411 0.733493 0.0465199 0.897772 0.173687 1.0252L3.92438 4.77537C3.99489 4.84569 4.08306 4.90226 4.18268 4.94107C4.28229 4.97988 4.39092 5 4.50089 5C4.61086 5 4.71949 4.97988 4.8191 4.94107C4.91872 4.90226 5.00689 4.84569 5.0774 4.77537V4.77537Z" fill="#BBBBBD"/>
</svg>
