<svg width="22" height="18" viewBox="0 0 22 18" fill="none" xmlns="http://www.w3.org/2000/svg">
<path d="M10.5952 10.3334C12.4362 10.3334 13.9285 8.84097 13.9285 7.00002C13.9285 5.15907 12.4362 3.66669 10.5952 3.66669C8.75426 3.66669 7.26187 5.15907 7.26187 7.00002C7.26187 8.84097 8.75426 10.3334 10.5952 10.3334Z" stroke="black" stroke-linecap="round" stroke-linejoin="round"/>
<path d="M15.2619 17C15.2619 15.7623 14.7702 14.5753 13.895 13.7001C13.0199 12.825 11.8329 12.3333 10.5952 12.3333C9.35752 12.3333 8.17053 12.825 7.29536 13.7001C6.42019 14.5753 5.92853 15.7623 5.92853 17H15.2619Z" stroke="black" stroke-linecap="round" stroke-linejoin="round"/>
<path d="M15.9285 7.66667C16.4967 7.66667 17.0555 7.52143 17.5518 7.24474C18.048 6.96805 18.4653 6.5691 18.764 6.08577C19.0628 5.60244 19.233 5.05078 19.2585 4.48316C19.284 3.91555 19.1641 3.35083 18.91 2.84262C18.6559 2.33442 18.2761 1.8996 17.8067 1.57947C17.3372 1.25933 16.7938 1.0645 16.2279 1.01347C15.662 0.962443 15.0925 1.05692 14.5733 1.28792C14.0542 1.51892 13.6028 1.87878 13.2619 2.33333" stroke="black" stroke-linecap="round" stroke-linejoin="round"/>
<path d="M16.5952 14.3334H20.5952C20.5952 13.0957 20.1036 11.9087 19.2284 11.0335C18.3532 10.1584 17.1662 9.66669 15.9286 9.66669" stroke="black" stroke-linecap="round" stroke-linejoin="round"/>
<path d="M7.92853 2.33333C7.58761 1.87878 7.13617 1.51892 6.61706 1.28792C6.09794 1.05692 5.5284 0.962443 4.96251 1.01347C4.39662 1.0645 3.85316 1.25933 3.38374 1.57947C2.91433 1.8996 2.53454 2.33442 2.28044 2.84262C2.02634 3.35083 1.90636 3.91555 1.9319 4.48316C1.95744 5.05078 2.12764 5.60244 2.42636 6.08577C2.72507 6.5691 3.14238 6.96805 3.63865 7.24474C4.13491 7.52143 4.69367 7.66667 5.26186 7.66667" stroke="black" stroke-linecap="round" stroke-linejoin="round"/>
<path d="M5.26188 9.66669C4.0242 9.66669 2.83722 10.1584 1.96205 11.0335C1.08688 11.9087 0.595215 13.0957 0.595215 14.3334H4.59521" stroke="black" stroke-linecap="round" stroke-linejoin="round"/>
</svg>
