<svg width="37" height="20" viewBox="0 0 37 20" fill="none" xmlns="http://www.w3.org/2000/svg">
<path d="M1.59521 8.75C0.904859 8.75 0.345215 9.30964 0.345215 10C0.345215 10.6904 0.904859 11.25 1.59521 11.25V8.75ZM36.4791 10.8839C36.9673 10.3957 36.9673 9.60427 36.4791 9.11612L28.5241 1.16117C28.036 0.67301 27.2445 0.67301 26.7564 1.16117C26.2682 1.64932 26.2682 2.44078 26.7564 2.92893L33.8274 10L26.7564 17.0711C26.2682 17.5592 26.2682 18.3507 26.7564 18.8388C27.2445 19.327 28.036 19.327 28.5241 18.8388L36.4791 10.8839ZM1.59521 11.25H35.5952V8.75H1.59521V11.25Z" fill="black"/>
</svg>
