<svg width="54" height="20" viewBox="0 0 54 20" fill="none" xmlns="http://www.w3.org/2000/svg">
<path d="M1.59521 8.75C0.904859 8.75 0.345215 9.30964 0.345215 10C0.345215 10.6904 0.904859 11.25 1.59521 11.25V8.75ZM53.4791 10.8839C53.9673 10.3957 53.9673 9.60427 53.4791 9.11612L45.5241 1.16117C45.036 0.67301 44.2445 0.67301 43.7564 1.16117C43.2682 1.64932 43.2682 2.44078 43.7564 2.92893L50.8274 10L43.7564 17.0711C43.2682 17.5592 43.2682 18.3507 43.7564 18.8388C44.2445 19.327 45.036 19.327 45.5241 18.8388L53.4791 10.8839ZM1.59521 11.25H52.5952V8.75H1.59521V11.25Z" fill="black"/>
</svg>
