<svg width="43" height="43" viewBox="0 0 43 43" fill="none" xmlns="http://www.w3.org/2000/svg">
<path d="M19.1688 10.7486C19.7125 8.24201 23.288 8.24201 23.8317 10.7486V10.7486C24.1846 12.3758 26.0538 13.1501 27.4541 12.249V12.249C29.6109 10.8611 32.1392 13.3893 30.7512 15.5462V15.5462C29.8501 16.9464 30.6244 18.8156 32.2516 19.1686V19.1686C34.7582 19.7123 34.7582 23.2877 32.2516 23.8314V23.8314C30.6244 24.1844 29.8501 26.0536 30.7512 27.4538V27.4538C32.1392 29.6107 29.6109 32.1389 27.4541 30.751V30.751C26.0538 29.8499 24.1846 30.6241 23.8317 32.2514V32.2514C23.288 34.758 19.7125 34.758 19.1688 32.2514V32.2514C18.8159 30.6242 16.9466 29.8499 15.5464 30.751V30.751C13.3895 32.1389 10.8613 29.6107 12.2493 27.4538V27.4538C13.1504 26.0536 12.3761 24.1844 10.7488 23.8314V23.8314C8.24226 23.2877 8.24226 19.7123 10.7488 19.1686V19.1686C12.3761 18.8156 13.1504 16.9464 12.2493 15.5462V15.5462C10.8613 13.3893 13.3895 10.8611 15.5464 12.249V12.249C16.9466 13.1501 18.8159 12.3759 19.1688 10.7486V10.7486Z" fill="#24C679"/>
<path d="M15.0002 21.8L16.3002 20.6L19.5502 23.6L26.7002 17L28.0002 18.2L19.5502 26L15.0002 21.8Z" fill="white"/>
</svg>
