<svg width="57" height="56" viewBox="0 0 57 56" fill="none" xmlns="http://www.w3.org/2000/svg">
<path d="M25.5589 13.9982C26.267 10.7338 30.9234 10.7338 31.6315 13.9982V13.9982C32.0912 16.1174 34.5255 17.1257 36.349 15.9522V15.9522C39.158 14.1446 42.4506 17.4372 40.643 20.2462V20.2462C39.4695 22.0697 40.4778 24.5041 42.597 24.9637V24.9637C45.8614 25.6718 45.8614 30.3282 42.597 31.0363V31.0363C40.4778 31.4959 39.4695 33.9303 40.643 35.7538V35.7538C42.4506 38.5628 39.158 41.8554 36.349 40.0478V40.0478C34.5255 38.8743 32.0912 39.8826 31.6315 42.0018V42.0018C30.9234 45.2662 26.267 45.2662 25.5589 42.0018V42.0018C25.0993 39.8826 22.6649 38.8743 20.8414 40.0478V40.0478C18.0324 41.8554 14.7399 38.5628 16.5475 35.7538V35.7538C17.7209 33.9303 16.7126 31.4959 14.5934 31.0363V31.0363C11.329 30.3282 11.329 25.6718 14.5934 24.9637V24.9637C16.7126 24.5041 17.7209 22.0697 16.5475 20.2462V20.2462C14.7399 17.4372 18.0324 14.1446 20.8414 15.9522V15.9522C22.6649 17.1257 25.0993 16.1174 25.5589 13.9982V13.9982Z" fill="#24C679"/>
<path d="M20.1301 28.3907L21.8231 26.8279L26.0557 30.7349L35.3673 22.1395L37.0603 23.7023L26.0557 33.8605L20.1301 28.3907Z" fill="white"/>
</svg>
