<svg width="24" height="24" viewBox="0 0 24 24" fill="none" xmlns="http://www.w3.org/2000/svg">
<path fill-rule="evenodd" clip-rule="evenodd" d="M21.068 0C22.6864 0 24.0002 1.31391 24.0002 2.93222V21.0678C24.0002 22.6861 22.6863 24 21.068 24H2.93246C1.31415 24 0.000244141 22.6861 0.000244141 21.0678V2.93222C0.000244141 1.31391 1.3141 0 2.93246 0H21.068V0ZM12.0002 3.79688C9.77242 3.79688 9.49304 3.8063 8.61812 3.84623C7.74498 3.88608 7.14868 4.02473 6.62687 4.22756C6.08743 4.43719 5.62998 4.71769 5.17393 5.17369C4.71788 5.62973 4.43738 6.08723 4.22776 6.62662C4.02498 7.14844 3.88632 7.74473 3.84643 8.61788C3.80654 9.4928 3.79712 9.77217 3.79712 12C3.79712 14.2278 3.80654 14.5072 3.84643 15.3821C3.88632 16.2553 4.02498 16.8516 4.22776 17.3734C4.43738 17.9128 4.71788 18.3703 5.17393 18.8263C5.62998 19.2824 6.08743 19.5629 6.62687 19.7725C7.14868 19.9753 7.74498 20.1139 8.61812 20.1538C9.49304 20.1937 9.77242 20.2031 12.0002 20.2031C14.2281 20.2031 14.5074 20.1937 15.3824 20.1538C16.2555 20.1139 16.8518 19.9753 17.3736 19.7725C17.913 19.5629 18.3705 19.2824 18.8266 18.8263C19.2826 18.3703 19.5631 17.9128 19.7727 17.3734C19.9755 16.8516 20.1142 16.2553 20.154 15.3821C20.1939 14.5072 20.2034 14.2278 20.2034 12C20.2034 9.77217 20.1939 9.4928 20.154 8.61788C20.1142 7.74473 19.9755 7.14844 19.7727 6.62662C19.5631 6.08723 19.2826 5.62973 18.8266 5.17369C18.3705 4.71769 17.913 4.43719 17.3736 4.22756C16.8518 4.02473 16.2555 3.88608 15.3824 3.84623C14.5074 3.8063 14.2281 3.79688 12.0002 3.79688V3.79688ZM12.0002 5.27494C14.1906 5.27494 14.45 5.28328 15.315 5.32275C16.1148 5.35927 16.5491 5.49291 16.8382 5.60517C17.2211 5.754 17.4944 5.9318 17.7814 6.21881C18.0685 6.50587 18.2462 6.77916 18.3951 7.16203C18.5074 7.45111 18.641 7.88545 18.6775 8.68523C18.717 9.55022 18.7254 9.80967 18.7254 12C18.7254 14.1903 18.717 14.4498 18.6775 15.3148C18.641 16.1145 18.5074 16.5489 18.3951 16.838C18.2462 17.2209 18.0685 17.4941 17.7814 17.7812C17.4944 18.0683 17.2211 18.246 16.8382 18.3948C16.5491 18.5071 16.1148 18.6408 15.315 18.6772C14.4502 18.7167 14.1907 18.7251 12.0002 18.7251C9.80978 18.7251 9.55037 18.7167 8.68548 18.6772C7.8857 18.6408 7.45135 18.5071 7.16228 18.3948C6.77935 18.246 6.50612 18.0683 6.21906 17.7812C5.93199 17.4941 5.7542 17.2209 5.60542 16.838C5.4931 16.5489 5.35946 16.1145 5.32295 15.3148C5.28348 14.4498 5.27513 14.1903 5.27513 12C5.27513 9.80967 5.28348 9.55022 5.32295 8.68523C5.35946 7.88545 5.4931 7.45111 5.60542 7.16203C5.7542 6.77916 5.93199 6.50587 6.21906 6.21881C6.50612 5.9318 6.77935 5.754 7.16228 5.60517C7.45135 5.49291 7.8857 5.35927 8.68548 5.32275C9.55046 5.28328 9.80992 5.27494 12.0002 5.27494V5.27494ZM12.0002 7.78758C9.67379 7.78758 7.78782 9.67355 7.78782 12C7.78782 14.3265 9.67379 16.2124 12.0002 16.2124C14.3267 16.2124 16.2127 14.3265 16.2127 12C16.2127 9.67355 14.3267 7.78758 12.0002 7.78758ZM12.0002 14.7344C10.4901 14.7344 9.26589 13.5102 9.26589 12C9.26589 10.4898 10.4901 9.26564 12.0002 9.26564C13.5104 9.26564 14.7346 10.4898 14.7346 12C14.7346 13.5102 13.5104 14.7344 12.0002 14.7344V14.7344ZM17.3635 7.62117C17.3635 8.16483 16.9227 8.6055 16.3791 8.6055C15.8355 8.6055 15.3947 8.16483 15.3947 7.62117C15.3947 7.07752 15.8355 6.6368 16.3791 6.6368C16.9227 6.6368 17.3635 7.07752 17.3635 7.62117Z" fill="black"/>
</svg>
