<svg width="69" height="53" viewBox="0 0 69 53" fill="none" xmlns="http://www.w3.org/2000/svg">
<path d="M6.82853 51.9891C7.18311 52.4125 7.81381 52.4683 8.23724 52.1137L15.1374 46.3355C15.5608 45.981 15.6167 45.3503 15.2621 44.9268C14.9075 44.5034 14.2768 44.4476 13.8534 44.8022L7.71988 49.9383L2.5837 43.8049C2.22913 43.3814 1.59843 43.3256 1.175 43.6802C0.751567 44.0348 0.695753 44.6655 1.05033 45.0889L6.82853 51.9891ZM8.59132 51.4352C8.65141 50.7562 8.71932 50.0862 8.79486 49.4249L6.80779 49.1979C6.7303 49.8762 6.66067 50.5632 6.59911 51.2589L8.59132 51.4352ZM9.35238 45.4777C9.57936 44.1372 9.83952 42.8361 10.1309 41.5734L8.18216 41.1237C7.8817 42.4255 7.61386 43.7653 7.38045 45.1439L9.35238 45.4777ZM11.1474 37.7308C11.5362 36.4338 11.9602 35.1816 12.4168 33.9726L10.5458 33.2659C10.0725 34.5192 9.6336 35.8156 9.2316 37.1565L11.1474 37.7308ZM13.9514 30.3248C14.5221 29.1002 15.1289 27.9254 15.7684 26.7984L14.029 25.8113C13.3629 26.985 12.7317 28.2073 12.1386 29.4799L13.9514 30.3248ZM17.8648 23.4382C18.6213 22.3324 19.4121 21.2794 20.2331 20.277L18.6858 19.0097C17.8286 20.0564 17.0033 21.1554 16.2141 22.309L17.8648 23.4382ZM22.87 17.3302C23.8032 16.3751 24.7663 15.474 25.7547 14.6245L24.4511 13.1077C23.4195 13.9943 22.414 14.9351 21.4394 15.9326L22.87 17.3302ZM28.8602 12.1785C29.9414 11.3987 31.0453 10.6723 32.1667 9.99648L31.1343 8.28355C29.9673 8.9869 28.8175 9.74346 27.6903 10.5563L28.8602 12.1785ZM35.6372 8.08805C36.8309 7.49098 38.0377 6.9452 39.2516 6.44758L38.493 4.59703C37.2346 5.11287 35.9824 5.67917 34.7425 6.29932L35.6372 8.08805ZM42.9768 5.07374C44.2496 4.65442 45.5235 4.28399 46.7917 3.95889L46.2951 2.02153C44.985 2.35736 43.6679 2.74031 42.351 3.17417L42.9768 5.07374ZM50.6775 3.0963C52.0046 2.84609 53.3172 2.64301 54.6073 2.48275L54.3607 0.498009C53.0303 0.663278 51.6763 0.872753 50.307 1.13093L50.6775 3.0963ZM58.5669 2.11584C59.9359 2.03213 61.2661 1.99565 62.5462 2.00041L62.5536 0.000425637C61.2305 -0.00449955 59.8572 0.0332057 58.4449 0.119569L58.5669 2.11584ZM66.5129 2.15324C67.191 2.20417 67.8474 2.26697 68.4799 2.34038L68.7105 0.353718C68.0504 0.2771 67.3671 0.211759 66.6627 0.158861L66.5129 2.15324Z" fill="black"/>
</svg>
