<svg width="24" height="24" viewBox="0 0 24 24" fill="none" xmlns="http://www.w3.org/2000/svg">
<path d="M20.6222 0H3.37824C2.48235 0 1.62314 0.355893 0.989641 0.989388C0.356139 1.6229 0.000244141 2.4821 0.000244141 3.378V20.622C0.000244141 21.5179 0.356139 22.3771 0.989641 23.0106C1.62314 23.644 2.48235 24 3.37824 24H11.2263V15.24H8.25925V11.823H11.2263V9.30601C11.2263 7.87951 11.6208 6.77101 12.4098 5.98351C13.1988 5.19451 14.2683 4.79851 15.6197 4.79851C16.9727 4.79851 17.8487 4.85101 18.2492 4.95001V7.99201H16.4462C15.7952 7.99201 15.3512 8.13001 15.1127 8.40601C14.8757 8.68051 14.7572 9.09451 14.7572 9.64501V11.823H18.1367L17.6867 15.24H14.7572V24H20.6222C21.5182 24 22.3774 23.644 23.0108 23.0106C23.6444 22.3771 24.0002 21.5179 24.0002 20.622V3.378C24.0002 2.4821 23.6444 1.6229 23.0108 0.989388C22.3774 0.355893 21.5182 0 20.6222 0Z" fill="black"/>
</svg>
